<?xml version="1.0" encoding="UTF-8" standalone="no"?>
<!DOCTYPE svg PUBLIC "-//W3C//DTD SVG 1.1//EN"
 "http://www.w3.org/Graphics/SVG/1.1/DTD/svg11.dtd">
<!-- Generated by graphviz version 2.38.0 (20140413.2041)
 -->
<!-- Title: bilinear Pages: 1 -->
<svg width="612pt" height="296pt"
 viewBox="0.00 0.00 611.97 296.00" xmlns="http://www.w3.org/2000/svg" xmlns:xlink="http://www.w3.org/1999/xlink">
<g id="graph0" class="graph" transform="scale(1 1) rotate(0) translate(4 292)">
<title>bilinear</title>
<polygon fill="white" stroke="none" points="-4,4 -4,-292 607.969,-292 607.969,4 -4,4"/>
<g id="clust1" class="cluster"><title>cluster_positive_embeddings</title>
<polygon fill="lightgrey" stroke="lightgrey" points="8,-148 8,-280 135,-280 135,-148 8,-148"/>
<text text-anchor="middle" x="71.5" y="-264.8" font-family="Times,serif" font-size="14.00">Known positive</text>
</g>
<g id="clust2" class="cluster"><title>cluster_negative_embeddings</title>
<polygon fill="lightgrey" stroke="lightgrey" points="8,-8 8,-140 135,-140 135,-8 8,-8"/>
<text text-anchor="middle" x="71.5" y="-124.8" font-family="Times,serif" font-size="14.00">Sampled negative</text>
</g>
<!-- p_user_embeddings -->
<g id="node1" class="node"><title>p_user_embeddings</title>
<polygon fill="white" stroke="white" points="17,-212 17,-248 126,-248 126,-212 17,-212"/>
<text text-anchor="middle" x="71.5" y="-226.3" font-family="Times,serif" font-size="14.00">user embeddings</text>
</g>
<!-- p_dot -->
<g id="node5" class="node"><title>p_dot</title>
<ellipse fill="none" stroke="black" cx="190" cy="-175" rx="27" ry="18"/>
<text text-anchor="middle" x="190" y="-171.3" font-family="Times,serif" font-size="14.00">dot</text>
</g>
<!-- p_user_embeddings&#45;&gt;p_dot -->
<g id="edge1" class="edge"><title>p_user_embeddings&#45;&gt;p_dot</title>
<path fill="none" stroke="black" d="M110.646,-211.991C126.106,-204.692 143.719,-196.377 158.326,-189.481"/>
<polygon fill="black" stroke="black" points="159.888,-192.614 167.437,-185.18 156.9,-186.284 159.888,-192.614"/>
</g>
<!-- p_item_embeddings -->
<g id="node2" class="node"><title>p_item_embeddings</title>
<polygon fill="white" stroke="white" points="16,-157 16,-193 127,-193 127,-157 16,-157"/>
<text text-anchor="middle" x="71.5" y="-171.3" font-family="Times,serif" font-size="14.00">item embeddings</text>
</g>
<!-- p_item_embeddings&#45;&gt;p_dot -->
<g id="edge2" class="edge"><title>p_item_embeddings&#45;&gt;p_dot</title>
<path fill="none" stroke="black" d="M127.339,-175C135.956,-175 144.673,-175 152.733,-175"/>
<polygon fill="black" stroke="black" points="152.885,-178.5 162.885,-175 152.885,-171.5 152.885,-178.5"/>
</g>
<!-- n_user_embeddings -->
<g id="node3" class="node"><title>n_user_embeddings</title>
<polygon fill="white" stroke="white" points="17,-72 17,-108 126,-108 126,-72 17,-72"/>
<text text-anchor="middle" x="71.5" y="-86.3" font-family="Times,serif" font-size="14.00">user embeddings</text>
</g>
<!-- n_dot -->
<g id="node6" class="node"><title>n_dot</title>
<ellipse fill="none" stroke="black" cx="190" cy="-90" rx="27" ry="18"/>
<text text-anchor="middle" x="190" y="-86.3" font-family="Times,serif" font-size="14.00">dot</text>
</g>
<!-- n_user_embeddings&#45;&gt;n_dot -->
<g id="edge3" class="edge"><title>n_user_embeddings&#45;&gt;n_dot</title>
<path fill="none" stroke="black" d="M126.317,-90C135.288,-90 144.4,-90 152.795,-90"/>
<polygon fill="black" stroke="black" points="152.981,-93.5001 162.981,-90 152.981,-86.5001 152.981,-93.5001"/>
</g>
<!-- n_item_embeddings -->
<g id="node4" class="node"><title>n_item_embeddings</title>
<polygon fill="white" stroke="white" points="16,-17 16,-53 127,-53 127,-17 16,-17"/>
<text text-anchor="middle" x="71.5" y="-31.3" font-family="Times,serif" font-size="14.00">item embeddings</text>
</g>
<!-- n_item_embeddings&#45;&gt;n_dot -->
<g id="edge4" class="edge"><title>n_item_embeddings&#45;&gt;n_dot</title>
<path fill="none" stroke="black" d="M110.646,-53.0091C126.106,-60.3077 143.719,-68.6229 158.326,-75.5185"/>
<polygon fill="black" stroke="black" points="156.9,-78.7158 167.437,-79.82 159.888,-72.3857 156.9,-78.7158"/>
</g>
<!-- loss -->
<g id="node7" class="node"><title>loss</title>
<ellipse fill="none" stroke="black" cx="428.484" cy="-132" rx="175.469" ry="18"/>
<text text-anchor="middle" x="428.484" y="-128.3" font-family="Times,serif" font-size="14.00">1.0 &#45; sigmoid(negative_score &#45; positive_score)</text>
</g>
<!-- p_dot&#45;&gt;loss -->
<g id="edge5" class="edge"><title>p_dot&#45;&gt;loss</title>
<path fill="none" stroke="black" d="M216.308,-170.398C243.83,-165.394 289.5,-157.09 331.341,-149.482"/>
<polygon fill="black" stroke="black" points="332.106,-152.9 341.319,-147.668 330.854,-146.013 332.106,-152.9"/>
</g>
<!-- n_dot&#45;&gt;loss -->
<g id="edge6" class="edge"><title>n_dot&#45;&gt;loss</title>
<path fill="none" stroke="black" d="M216.308,-94.4947C243.499,-99.324 288.404,-107.299 329.83,-114.656"/>
<polygon fill="black" stroke="black" points="329.257,-118.109 339.715,-116.412 330.481,-111.217 329.257,-118.109"/>
</g>
</g>
</svg>
