<?xml version="1.0" encoding="UTF-8" standalone="no"?>
<!DOCTYPE svg PUBLIC "-//W3C//DTD SVG 1.1//EN"
 "http://www.w3.org/Graphics/SVG/1.1/DTD/svg11.dtd">
<!-- Generated by graphviz version 2.38.0 (20140413.2041)
 -->
<!-- Title: bilinear Pages: 1 -->
<svg width="414pt" height="100pt"
 viewBox="0.00 0.00 414.29 100.00" xmlns="http://www.w3.org/2000/svg" xmlns:xlink="http://www.w3.org/1999/xlink">
<g id="graph0" class="graph" transform="scale(1 1) rotate(0) translate(4 96)">
<title>bilinear</title>
<polygon fill="white" stroke="none" points="-4,4 -4,-96 410.293,-96 410.293,4 -4,4"/>
<!-- user_embeddings -->
<g id="node1" class="node"><title>user_embeddings</title>
<polygon fill="none" stroke="black" points="1,-55.5 1,-91.5 110,-91.5 110,-55.5 1,-55.5"/>
<text text-anchor="middle" x="55.5" y="-69.8" font-family="Times,serif" font-size="14.00">user embeddings</text>
</g>
<!-- dot -->
<g id="node3" class="node"><title>dot</title>
<ellipse fill="none" stroke="black" cx="174" cy="-45.5" rx="27" ry="18"/>
<text text-anchor="middle" x="174" y="-41.8" font-family="Times,serif" font-size="14.00">dot</text>
</g>
<!-- user_embeddings&#45;&gt;dot -->
<g id="edge1" class="edge"><title>user_embeddings&#45;&gt;dot</title>
<path fill="none" stroke="black" d="M110.317,-60.5655C119.83,-58.2791 129.501,-55.9546 138.309,-53.8378"/>
<polygon fill="black" stroke="black" points="139.285,-57.203 148.19,-51.463 137.649,-50.3968 139.285,-57.203"/>
</g>
<!-- item_embeddings -->
<g id="node2" class="node"><title>item_embeddings</title>
<polygon fill="none" stroke="black" points="0,-0.5 0,-36.5 111,-36.5 111,-0.5 0,-0.5"/>
<text text-anchor="middle" x="55.5" y="-14.8" font-family="Times,serif" font-size="14.00">item embeddings</text>
</g>
<!-- item_embeddings&#45;&gt;dot -->
<g id="edge2" class="edge"><title>item_embeddings&#45;&gt;dot</title>
<path fill="none" stroke="black" d="M111.339,-31.2094C120.569,-33.3487 129.914,-35.5145 138.443,-37.491"/>
<polygon fill="black" stroke="black" points="137.846,-40.9454 148.378,-39.7936 139.426,-34.1261 137.846,-40.9454"/>
</g>
<!-- sigmoid -->
<g id="node4" class="node"><title>sigmoid</title>
<ellipse fill="none" stroke="black" cx="276.646" cy="-45.5" rx="39.7935" ry="18"/>
<text text-anchor="middle" x="276.646" y="-41.8" font-family="Times,serif" font-size="14.00">sigmoid</text>
</g>
<!-- dot&#45;&gt;sigmoid -->
<g id="edge3" class="edge"><title>dot&#45;&gt;sigmoid</title>
<path fill="none" stroke="black" d="M201.181,-45.5C208.967,-45.5 217.765,-45.5 226.514,-45.5"/>
<polygon fill="black" stroke="black" points="226.699,-49.0001 236.699,-45.5 226.699,-42.0001 226.699,-49.0001"/>
</g>
<!-- loss -->
<g id="node5" class="node"><title>loss</title>
<ellipse fill="none" stroke="black" cx="379.293" cy="-45.5" rx="27" ry="18"/>
<text text-anchor="middle" x="379.293" y="-41.8" font-family="Times,serif" font-size="14.00">loss</text>
</g>
<!-- sigmoid&#45;&gt;loss -->
<g id="edge4" class="edge"><title>sigmoid&#45;&gt;loss</title>
<path fill="none" stroke="black" d="M316.559,-45.5C324.96,-45.5 333.809,-45.5 342.101,-45.5"/>
<polygon fill="black" stroke="black" points="342.231,-49.0001 352.231,-45.5 342.231,-42.0001 342.231,-49.0001"/>
</g>
</g>
</svg>
